<svg width="531" height="55" viewBox="0 0 531 55" fill="none" xmlns="http://www.w3.org/2000/svg">
<path d="M22.9932 54.8296H12.3474C8.68614 54.8296 5.78529 53.7594 3.64485 51.6189C1.56075 49.4785 0.518694 46.5495 0.518694 42.8319V12.4997C0.518694 8.78211 1.56075 5.8531 3.64485 3.71266C5.78529 1.57223 8.68614 0.502015 12.3474 0.502015H22.9932C26.6545 0.502015 29.5272 1.57223 31.6113 3.71266C33.7517 5.8531 34.822 8.78211 34.822 12.4997V16.6398C34.822 17.3157 34.5122 17.6536 33.8926 17.6536H31.5268C30.9072 17.6536 30.5974 17.3157 30.5974 16.6398V12.6687C30.5974 9.96498 29.8933 7.90904 28.4851 6.50086C27.1333 5.03635 25.1618 4.3041 22.5708 4.3041H12.6854C10.0943 4.3041 8.12286 5.03635 6.77101 6.50086C5.41916 7.96537 4.74323 10.0213 4.74323 12.6687V42.6629C4.74323 45.3103 5.41916 47.3662 6.77101 48.8307C8.12286 50.2953 10.0943 51.0275 12.6854 51.0275H22.5708C25.1618 51.0275 27.1333 50.3234 28.4851 48.9152C29.8933 47.4507 30.5974 45.3666 30.5974 42.6629V38.6918C30.5974 38.0159 30.9072 37.678 31.5268 37.678H33.8926C34.5122 37.678 34.822 38.0159 34.822 38.6918V42.8319C34.822 46.5495 33.7517 49.4785 31.6113 51.6189C29.5272 53.7594 26.6545 54.8296 22.9932 54.8296ZM45.7206 54.8296H43.1014C42.4818 54.8296 42.2846 54.4916 42.51 53.8157L59.3236 1.5159C59.4926 0.839978 59.8869 0.502015 60.5065 0.502015H64.4776C65.0408 0.502015 65.4351 0.839978 65.6604 1.5159L82.4741 53.8157C82.6431 54.4916 82.4459 54.8296 81.8827 54.8296H79.179C78.6157 54.8296 78.2496 54.4916 78.0806 53.8157L73.5181 40.2972H51.3815L46.819 53.8157C46.5937 54.4916 46.2275 54.8296 45.7206 54.8296ZM62.2808 5.14901L52.5644 36.4951H72.4197L62.6188 5.14901H62.2808ZM91.8697 42.8319V39.7902C91.8697 39.1706 92.1795 38.8608 92.7991 38.8608H95.2494C95.869 38.8608 96.1788 39.1706 96.1788 39.7902V42.5784C96.1788 48.2111 98.9106 51.0275 104.374 51.0275H113.161C118.625 51.0275 121.357 48.183 121.357 42.4939V38.9453C121.357 36.4669 120.343 34.5236 118.315 33.1155C116.288 31.7073 113.837 30.6934 110.965 30.0738C108.092 29.4542 105.191 28.8064 102.262 28.1305C99.3894 27.4546 96.9392 26.2154 94.9114 24.4129C92.8836 22.6104 91.8697 20.1884 91.8697 17.1467V12.4997C91.8697 8.78211 92.94 5.8531 95.0804 3.71266C97.2208 1.57223 100.122 0.502015 103.783 0.502015H113.584C117.245 0.502015 120.146 1.57223 122.286 3.71266C124.427 5.8531 125.497 8.78211 125.497 12.4997V14.8654C125.497 15.485 125.187 15.7948 124.568 15.7948H122.117C121.498 15.7948 121.188 15.485 121.188 14.8654V12.7532C121.188 7.12046 118.456 4.3041 112.992 4.3041H104.29C98.8825 4.3041 96.1788 7.17678 96.1788 12.9222V17.1467C96.1788 21.0333 99.6429 23.6525 106.571 25.0043C109.444 25.5676 112.317 26.2154 115.189 26.9476C118.118 27.6799 120.597 29.0036 122.624 30.9187C124.652 32.8338 125.666 35.4249 125.666 38.6918V42.8319C125.666 46.5495 124.596 49.4785 122.455 51.6189C120.315 53.7594 117.414 54.8296 113.753 54.8296H103.783C100.122 54.8296 97.2208 53.7594 95.0804 51.6189C92.94 49.4785 91.8697 46.5495 91.8697 42.8319ZM166.604 54.8296H140.496C139.933 54.8296 139.651 54.4916 139.651 53.8157V1.5159C139.651 0.839978 139.933 0.502015 140.496 0.502015H166.604C167.28 0.502015 167.618 0.811814 167.618 1.43141V3.3747C167.618 3.9943 167.28 4.3041 166.604 4.3041H144.721C144.157 4.3041 143.876 4.55757 143.876 5.06451V24.4974C143.876 25.0043 144.157 25.2578 144.721 25.2578H164.238C164.858 25.2578 165.167 25.5676 165.167 26.1872V28.1305C165.167 28.7501 164.858 29.0599 164.238 29.0599H144.721C144.157 29.0599 143.876 29.3134 143.876 29.8203V50.2671C143.876 50.774 144.157 51.0275 144.721 51.0275H166.604C167.28 51.0275 167.618 51.3373 167.618 51.9569V53.9002C167.618 54.5198 167.28 54.8296 166.604 54.8296ZM206.149 54.8296H203.699C203.136 54.8296 202.854 54.4916 202.854 53.8157V1.5159C202.854 0.839978 203.136 0.502015 203.699 0.502015H206.149C206.769 0.502015 207.079 0.839978 207.079 1.5159V24.5819C207.079 25.0888 207.36 25.3423 207.924 25.3423H231.581C232.144 25.3423 232.426 25.0888 232.426 24.5819V1.5159C232.426 0.839978 232.708 0.502015 233.271 0.502015H235.721C236.341 0.502015 236.651 0.839978 236.651 1.5159V53.8157C236.651 54.4916 236.341 54.8296 235.721 54.8296H233.271C232.708 54.8296 232.426 54.4916 232.426 53.8157V29.9048C232.426 29.3979 232.144 29.1444 231.581 29.1444H207.924C207.36 29.1444 207.079 29.3979 207.079 29.9048V53.8157C207.079 54.4916 206.769 54.8296 206.149 54.8296ZM277.993 54.8296H251.885C251.322 54.8296 251.04 54.4916 251.04 53.8157V1.5159C251.04 0.839978 251.322 0.502015 251.885 0.502015H277.993C278.669 0.502015 279.007 0.811814 279.007 1.43141V3.3747C279.007 3.9943 278.669 4.3041 277.993 4.3041H256.11C255.547 4.3041 255.265 4.55757 255.265 5.06451V24.4974C255.265 25.0043 255.547 25.2578 256.11 25.2578H275.627C276.247 25.2578 276.557 25.5676 276.557 26.1872V28.1305C276.557 28.7501 276.247 29.0599 275.627 29.0599H256.11C255.547 29.0599 255.265 29.3134 255.265 29.8203V50.2671C255.265 50.774 255.547 51.0275 256.11 51.0275H277.993C278.669 51.0275 279.007 51.3373 279.007 51.9569V53.9002C279.007 54.5198 278.669 54.8296 277.993 54.8296ZM290.282 54.8296H287.663C287.043 54.8296 286.846 54.4916 287.071 53.8157L303.885 1.5159C304.054 0.839978 304.448 0.502015 305.068 0.502015H309.039C309.602 0.502015 309.996 0.839978 310.222 1.5159L327.035 53.8157C327.204 54.4916 327.007 54.8296 326.444 54.8296H323.74C323.177 54.8296 322.811 54.4916 322.642 53.8157L318.079 40.2972H295.943L291.38 53.8157C291.155 54.4916 290.789 54.8296 290.282 54.8296ZM306.842 5.14901L297.126 36.4951H316.981L307.18 5.14901H306.842ZM364.482 54.8296H337.614C337.051 54.8296 336.769 54.4916 336.769 53.8157V1.5159C336.769 0.839978 337.051 0.502015 337.614 0.502015H340.064C340.684 0.502015 340.993 0.839978 340.993 1.5159V50.0981C340.993 50.6051 341.275 50.8585 341.838 50.8585H364.482C365.158 50.8585 365.496 51.1683 365.496 51.7879V53.9002C365.496 54.5198 365.158 54.8296 364.482 54.8296ZM386.717 54.8296H384.267C383.648 54.8296 383.338 54.4916 383.338 53.8157V5.06451C383.338 4.55757 383.056 4.3041 382.493 4.3041H370.242C369.566 4.3041 369.228 3.9943 369.228 3.3747V1.43141C369.228 0.811814 369.566 0.502015 370.242 0.502015H400.658C401.334 0.502015 401.672 0.811814 401.672 1.43141V3.3747C401.672 3.9943 401.334 4.3041 400.658 4.3041H388.407C387.844 4.3041 387.562 4.55757 387.562 5.06451V53.8157C387.562 54.4916 387.281 54.8296 386.717 54.8296ZM413.663 54.8296H411.213C410.65 54.8296 410.368 54.4916 410.368 53.8157V1.5159C410.368 0.839978 410.65 0.502015 411.213 0.502015H413.663C414.283 0.502015 414.593 0.839978 414.593 1.5159V24.5819C414.593 25.0888 414.874 25.3423 415.438 25.3423H439.095C439.658 25.3423 439.94 25.0888 439.94 24.5819V1.5159C439.94 0.839978 440.222 0.502015 440.785 0.502015H443.235C443.855 0.502015 444.165 0.839978 444.165 1.5159V53.8157C444.165 54.4916 443.855 54.8296 443.235 54.8296H440.785C440.222 54.8296 439.94 54.4916 439.94 53.8157V29.9048C439.94 29.3979 439.658 29.1444 439.095 29.1444H415.438C414.874 29.1444 414.593 29.3979 414.593 29.9048V53.8157C414.593 54.4916 414.283 54.8296 413.663 54.8296ZM479.643 54.8296H477.024C476.405 54.8296 476.208 54.4916 476.433 53.8157L493.246 1.5159C493.415 0.839978 493.81 0.502015 494.429 0.502015H498.4C498.964 0.502015 499.358 0.839978 499.583 1.5159L516.397 53.8157C516.566 54.4916 516.369 54.8296 515.806 54.8296H513.102C512.539 54.8296 512.172 54.4916 512.003 53.8157L507.441 40.2972H485.304L480.742 53.8157C480.517 54.4916 480.15 54.8296 479.643 54.8296ZM496.204 5.14901L486.487 36.4951H506.343L496.542 5.14901H496.204ZM530.778 1.5159V53.8157C530.778 54.4916 530.468 54.8296 529.848 54.8296H527.398C526.835 54.8296 526.553 54.4916 526.553 53.8157V1.5159C526.553 0.839978 526.835 0.502015 527.398 0.502015H529.848C530.468 0.502015 530.778 0.839978 530.778 1.5159Z" fill="black"/>
</svg>
