<svg width="372" height="39" viewBox="0 0 372 39" fill="none" xmlns="http://www.w3.org/2000/svg">
<path d="M16.1679 39H8.71586C6.15298 39 4.12238 38.2508 2.62408 36.7525C1.1652 35.2542 0.435766 33.2039 0.435766 30.6016V9.36908C0.435766 6.76677 1.1652 4.71646 2.62408 3.21816C4.12238 1.71985 6.15298 0.970701 8.71586 0.970701H16.1679C18.7308 0.970701 20.7417 1.71985 22.2006 3.21816C23.6989 4.71646 24.448 6.76677 24.448 9.36908V12.2671C24.448 12.7403 24.2312 12.9768 23.7975 12.9768H22.1414C21.7077 12.9768 21.4909 12.7403 21.4909 12.2671V9.48737C21.4909 7.59478 20.998 6.15562 20.0123 5.16989C19.066 4.14474 17.686 3.63216 15.8722 3.63216H8.95244C7.1387 3.63216 5.75869 4.14474 4.81239 5.16989C3.86609 6.19505 3.39294 7.63421 3.39294 9.48737V30.4833C3.39294 32.3365 3.86609 33.7757 4.81239 34.8008C5.75869 35.826 7.1387 36.3385 8.95244 36.3385H15.8722C17.686 36.3385 19.066 35.8457 20.0123 34.86C20.998 33.8348 21.4909 32.3759 21.4909 30.4833V27.7036C21.4909 27.2304 21.7077 26.9939 22.1414 26.9939H23.7975C24.2312 26.9939 24.448 27.2304 24.448 27.7036V30.6016C24.448 33.2039 23.6989 35.2542 22.2006 36.7525C20.7417 38.2508 18.7308 39 16.1679 39ZM32.0771 39H30.2437C29.8099 39 29.6719 38.7634 29.8296 38.2903L41.5992 1.68042C41.7175 1.20727 41.9935 0.970701 42.4272 0.970701H45.207C45.6013 0.970701 45.8773 1.20727 46.035 1.68042L57.8045 38.2903C57.9228 38.7634 57.7848 39 57.3905 39H55.4979C55.1037 39 54.8474 38.7634 54.7291 38.2903L51.5353 28.8273H36.0397L32.846 38.2903C32.6883 38.7634 32.432 39 32.0771 39ZM43.6692 4.2236L36.8677 26.1659H50.7665L43.9058 4.2236H43.6692ZM64.3815 30.6016V28.4724C64.3815 28.0387 64.5983 27.8219 65.0321 27.8219H66.7472C67.181 27.8219 67.3978 28.0387 67.3978 28.4724V30.4242C67.3978 34.3671 69.3101 36.3385 73.1347 36.3385H79.2857C83.1103 36.3385 85.0226 34.3474 85.0226 30.365V27.881C85.0226 26.1461 84.3129 24.7858 82.8934 23.8001C81.474 22.8144 79.7588 22.1047 77.7479 21.6709C75.7371 21.2372 73.7065 20.7838 71.6561 20.3106C69.6453 19.8375 67.9301 18.9701 66.5107 17.7083C65.0912 16.4466 64.3815 14.7511 64.3815 12.622V9.36908C64.3815 6.76677 65.1306 4.71646 66.6289 3.21816C68.1272 1.71985 70.1578 0.970701 72.7207 0.970701H79.5814C82.1443 0.970701 84.1749 1.71985 85.6732 3.21816C87.1715 4.71646 87.9206 6.76677 87.9206 9.36908V11.0251C87.9206 11.4588 87.7038 11.6757 87.27 11.6757H85.5549C85.1212 11.6757 84.9043 11.4588 84.9043 11.0251V9.54651C84.9043 5.60361 82.992 3.63216 79.1674 3.63216H73.0756C69.2904 3.63216 67.3978 5.64304 67.3978 9.6648V12.622C67.3978 15.3426 69.8227 17.176 74.6725 18.1223C76.6833 18.5166 78.6942 18.9701 80.7051 19.4826C82.7554 19.9952 84.4903 20.9218 85.9097 22.2624C87.3292 23.603 88.0389 25.4167 88.0389 27.7036V30.6016C88.0389 33.2039 87.2898 35.2542 85.7915 36.7525C84.2932 38.2508 82.2626 39 79.6997 39H72.7207C70.1578 39 68.1272 38.2508 66.6289 36.7525C65.1306 35.2542 64.3815 33.2039 64.3815 30.6016ZM116.695 39H98.42C98.0257 39 97.8285 38.7634 97.8285 38.2903V1.68042C97.8285 1.20727 98.0257 0.970701 98.42 0.970701H116.695C117.168 0.970701 117.405 1.18756 117.405 1.62128V2.98158C117.405 3.4153 117.168 3.63216 116.695 3.63216H101.377C100.983 3.63216 100.786 3.80959 100.786 4.16445V17.7675C100.786 18.1223 100.983 18.2998 101.377 18.2998H115.039C115.473 18.2998 115.69 18.5166 115.69 18.9503V20.3106C115.69 20.7444 115.473 20.9612 115.039 20.9612H101.377C100.983 20.9612 100.786 21.1386 100.786 21.4935V35.8062C100.786 36.1611 100.983 36.3385 101.377 36.3385H116.695C117.168 36.3385 117.405 36.5554 117.405 36.9891V38.3494C117.405 38.7831 117.168 39 116.695 39ZM144.377 39H142.662C142.268 39 142.071 38.7634 142.071 38.2903V1.68042C142.071 1.20727 142.268 0.970701 142.662 0.970701H144.377C144.811 0.970701 145.028 1.20727 145.028 1.68042V17.8266C145.028 18.1815 145.225 18.3589 145.619 18.3589H162.179C162.574 18.3589 162.771 18.1815 162.771 17.8266V1.68042C162.771 1.20727 162.968 0.970701 163.362 0.970701H165.078C165.511 0.970701 165.728 1.20727 165.728 1.68042V38.2903C165.728 38.7634 165.511 39 165.078 39H163.362C162.968 39 162.771 38.7634 162.771 38.2903V21.5527C162.771 21.1978 162.574 21.0204 162.179 21.0204H145.619C145.225 21.0204 145.028 21.1978 145.028 21.5527V38.2903C145.028 38.7634 144.811 39 144.377 39ZM194.668 39H176.392C175.998 39 175.801 38.7634 175.801 38.2903V1.68042C175.801 1.20727 175.998 0.970701 176.392 0.970701H194.668C195.141 0.970701 195.378 1.18756 195.378 1.62128V2.98158C195.378 3.4153 195.141 3.63216 194.668 3.63216H179.35C178.955 3.63216 178.758 3.80959 178.758 4.16445V17.7675C178.758 18.1223 178.955 18.2998 179.35 18.2998H193.012C193.445 18.2998 193.662 18.5166 193.662 18.9503V20.3106C193.662 20.7444 193.445 20.9612 193.012 20.9612H179.35C178.955 20.9612 178.758 21.1386 178.758 21.4935V35.8062C178.758 36.1611 178.955 36.3385 179.35 36.3385H194.668C195.141 36.3385 195.378 36.5554 195.378 36.9891V38.3494C195.378 38.7831 195.141 39 194.668 39ZM203.27 39H201.436C201.003 39 200.865 38.7634 201.022 38.2903L212.792 1.68042C212.91 1.20727 213.186 0.970701 213.62 0.970701H216.4C216.794 0.970701 217.07 1.20727 217.228 1.68042L228.997 38.2903C229.116 38.7634 228.978 39 228.583 39H226.691C226.296 39 226.04 38.7634 225.922 38.2903L222.728 28.8273H207.233L204.039 38.2903C203.881 38.7634 203.625 39 203.27 39ZM214.862 4.2236L208.061 26.1659H221.959L215.099 4.2236H214.862ZM255.21 39H236.402C236.008 39 235.811 38.7634 235.811 38.2903V1.68042C235.811 1.20727 236.008 0.970701 236.402 0.970701H238.117C238.551 0.970701 238.768 1.20727 238.768 1.68042V35.688C238.768 36.0428 238.965 36.2203 239.36 36.2203H255.21C255.683 36.2203 255.92 36.4371 255.92 36.8708V38.3494C255.92 38.7831 255.683 39 255.21 39ZM270.775 39H269.06C268.626 39 268.409 38.7634 268.409 38.2903V4.16445C268.409 3.80959 268.212 3.63216 267.818 3.63216H259.242C258.769 3.63216 258.532 3.4153 258.532 2.98158V1.62128C258.532 1.18756 258.769 0.970701 259.242 0.970701H280.534C281.007 0.970701 281.243 1.18756 281.243 1.62128V2.98158C281.243 3.4153 281.007 3.63216 280.534 3.63216H271.958C271.563 3.63216 271.366 3.80959 271.366 4.16445V38.2903C271.366 38.7634 271.169 39 270.775 39ZM289.637 39H287.922C287.528 39 287.33 38.7634 287.33 38.2903V1.68042C287.33 1.20727 287.528 0.970701 287.922 0.970701H289.637C290.071 0.970701 290.288 1.20727 290.288 1.68042V17.8266C290.288 18.1815 290.485 18.3589 290.879 18.3589H307.439C307.834 18.3589 308.031 18.1815 308.031 17.8266V1.68042C308.031 1.20727 308.228 0.970701 308.622 0.970701H310.337C310.771 0.970701 310.988 1.20727 310.988 1.68042V38.2903C310.988 38.7634 310.771 39 310.337 39H308.622C308.228 39 308.031 38.7634 308.031 38.2903V21.5527C308.031 21.1978 307.834 21.0204 307.439 21.0204H290.879C290.485 21.0204 290.288 21.1978 290.288 21.5527V38.2903C290.288 38.7634 290.071 39 289.637 39ZM335.823 39H333.99C333.556 39 333.418 38.7634 333.576 38.2903L345.345 1.68042C345.463 1.20727 345.739 0.970701 346.173 0.970701H348.953C349.347 0.970701 349.623 1.20727 349.781 1.68042L361.551 38.2903C361.669 38.7634 361.531 39 361.137 39H359.244C358.85 39 358.593 38.7634 358.475 38.2903L355.281 28.8273H339.786L336.592 38.2903C336.434 38.7634 336.178 39 335.823 39ZM347.415 4.2236L340.614 26.1659H354.512L347.652 4.2236H347.415ZM371.617 1.68042V38.2903C371.617 38.7634 371.4 39 370.966 39H369.251C368.857 39 368.66 38.7634 368.66 38.2903V1.68042C368.66 1.20727 368.857 0.970701 369.251 0.970701H370.966C371.4 0.970701 371.617 1.20727 371.617 1.68042Z" fill="white"/>
</svg>
